<svg xmlns="http://www.w3.org/2000/svg" viewBox="0 0 80 80" width="80" height="80">
  <defs>
    <linearGradient id="g" x1="0%" y1="0%" x2="100%" y2="100%">
      <stop offset="0%" stop-color="#10b981"/>
      <stop offset="100%" stop-color="#3b82f6"/>
    </linearGradient>
  </defs>

  <style>
    @keyframes wink {
      0%, 90%, 100% { transform: scaleY(1); }
      95% { transform: scaleY(0.1); }
    }
    @keyframes hide {
      0%, 90%, 100% { opacity: 1; }
      95% { opacity: 0; }
    }
    .left-eye { animation: wink 3s infinite; transform-origin: 30px 44px; }
    .left-highlight { animation: hide 3s infinite; }
  </style>

  <!-- 背景 -->
  <circle cx="40" cy="40" r="38" fill="#0f172a"/>

  <!-- 耳朵（三角竖耳） -->
  <path d="M12 30 L22 8 L30 28 Z" fill="#d4a054"/>
  <path d="M15 28 L22 12 L28 26 Z" fill="#fca5a5" opacity="0.3"/>
  <path d="M50 28 L58 8 L68 30 Z" fill="#d4a054"/>
  <path d="M52 26 L58 12 L65 28 Z" fill="#fca5a5" opacity="0.3"/>

  <!-- 头（柴犬特有的宽脸） -->
  <ellipse cx="40" cy="46" rx="26" ry="22" fill="#e8a840"/>

  <!-- 白色脸部 -->
  <ellipse cx="40" cy="52" rx="18" ry="16" fill="#fff8f0"/>

  <!-- 额头白色 -->
  <path d="M32 34 Q40 28 48 34 L46 40 Q40 36 34 40 Z" fill="#fff8f0"/>

  <!-- 左眼（wink 动画） -->
  <ellipse class="left-eye" cx="30" cy="44" rx="4" ry="5" fill="#1a1a2e"/>
  <circle class="left-highlight" cx="31" cy="43" r="1.5" fill="white"/>

  <!-- 右眼（正常） -->
  <ellipse cx="50" cy="44" rx="4" ry="5" fill="#1a1a2e"/>
  <circle cx="51" cy="43" r="1.5" fill="white"/>

  <!-- 眉毛（柴犬特征） -->
  <ellipse cx="30" cy="38" rx="4" ry="1.5" fill="#c4903c"/>
  <ellipse cx="50" cy="38" rx="4" ry="1.5" fill="#c4903c"/>

  <!-- 腮红 -->
  <ellipse cx="20" cy="50" rx="4" ry="2.5" fill="#fca5a5" opacity="0.4"/>
  <ellipse cx="60" cy="50" rx="4" ry="2.5" fill="#fca5a5" opacity="0.4"/>

  <!-- 鼻子 -->
  <ellipse cx="40" cy="52" rx="4" ry="3" fill="#1a1a2e"/>
  <ellipse cx="39" cy="51" rx="1" ry="0.8" fill="white" opacity="0.3"/>

  <!-- 嘴 -->
  <path d="M40 55 L40 58" stroke="#1a1a2e" stroke-width="1.5" stroke-linecap="round"/>
  <path d="M34 60 Q40 64 46 60" stroke="#1a1a2e" stroke-width="1.5" fill="none" stroke-linecap="round"/>

  <!-- 项圈 -->
  <path d="M18 66 Q40 74 62 66" stroke="#10b981" stroke-width="3" fill="none" stroke-linecap="round"/>

  <!-- 项圈吊牌 -->
  <circle cx="40" cy="72" r="4" fill="url(#g)">
    <animate attributeName="opacity" values="1;0.5;1" dur="2s" repeatCount="indefinite"/>
  </circle>
</svg>
